PathFileType	4	(X/Y/Z)	C:\Users\Basilio\Documents\Thesis Gigler\squatting_fais\c3dfiles\058\SJ_pre3\markers_experimental.trc
DataRate	CameraRate	NumFrames	NumMarkers	Units	OrigDataRate	OrigDataStartFrame	OrigNumFrames
200.000000	200.000000	4	61	mm	200.000000	875	1400
Frame#	Time	FHD			LBHD			RBHD			C7			T10			CLAV			LSHO			LUUPA			LMUPA			LDUPA			LLEP			LMEP			LRAD			LUL			LRFIN			RSHO			RUPA1			RMUPA			RDUPA			RLEP			RMEP			RRAD			RUL			RUFIN			LASI			RASI			USACR			LSACR			RSACR			LTHI1			LTHI2			LTHI3			LTHI4			LLFC			LMFC			LTIB1			LTIB2			LTIB3			LTIB4			LLMAL			LMMAL			LHEE			LMT1			LMT2			LMT5			RTHI			RTHI2			RTHI3			RTHI4			RLFC			RMFC			RTIB1			RTIB2			RTIB3			RTIB4			RLMAL			RMMAL			RHEE			RMT1			RMT2			RMT5			
		X1	Y1	Z1	X2	Y2	Z2	X3	Y3	Z3	X4	Y4	Z4	X5	Y5	Z5	X6	Y6	Z6	X7	Y7	Z7	X8	Y8	Z8	X9	Y9	Z9	X10	Y10	Z10	X11	Y11	Z11	X12	Y12	Z12	X13	Y13	Z13	X14	Y14	Z14	X15	Y15	Z15	X16	Y16	Z16	X17	Y17	Z17	X18	Y18	Z18	X19	Y19	Z19	X20	Y20	Z20	X21	Y21	Z21	X22	Y22	Z22	X23	Y23	Z23	X24	Y24	Z24	X25	Y25	Z25	X26	Y26	Z26	X27	Y27	Z27	X28	Y28	Z28	X29	Y29	Z29	X30	Y30	Z30	X31	Y31	Z31	X32	Y32	Z32	X33	Y33	Z33	X34	Y34	Z34	X35	Y35	Z35	X36	Y36	Z36	X37	Y37	Z37	X38	Y38	Z38	X39	Y39	Z39	X40	Y40	Z40	X41	Y41	Z41	X42	Y42	Z42	X43	Y43	Z43	X44	Y44	Z44	X45	Y45	Z45	X46	Y46	Z46	X47	Y47	Z47	X48	Y48	Z48	X49	Y49	Z49	X50	Y50	Z50	X51	Y51	Z51	X52	Y52	Z52	X53	Y53	Z53	X54	Y54	Z54	X55	Y55	Z55	X56	Y56	Z56	X57	Y57	Z57	X58	Y58	Z58	X59	Y59	Z59	X60	Y60	Z60	X61	Y61	Z61	

876	4.375	122.8656539916992	1081.937744140625	-820.2442016601565	-44.5610694885254	1061.505737304688	-884.0603637695315	127.7607116699219	1094.65283203125	-962.5465087890627	-90.0657196044922	1000.188537597656	-907.0050048828127	-353.6063842773438	863.2283325195315	-894.3410644531252	-13.04330348968506	844.315124511719	-888.9416503906252	25.74377632141114	876.7569580078127	-1051.599609375	-122.92578125	899.099060058594	-1230.067260742188	-144.5252075195313	853.3157958984377	-1232.420043945313	-176.7767944335938	885.920837402344	-1269.510375976563	-262.5432434082032	871.8416748046877	-1304.23291015625	-297.5511779785157	928.995056152344	-1262.413208007813	-419.7411193847657	771.150817871094	-1098.991088867188	-437.3117065429689	708.1749267578126	-1147.280883789063	-368.4519958496094	729.7637329101564	-1073.349243164063	16.85016822814942	899.1293945312502	-725.7339477539064	-142.958236694336	948.857849121094	-571.1149291992189	-165.5789184570313	903.8635253906252	-567.3587646484376	-202.6116333007813	936.206726074219	-534.4968261718751	-270.8682250976563	940.5582275390627	-503.065887451172	-319.6187133789063	982.453552246094	-568.2451171875001	-397.1760864257814	773.3411254882815	-678.6475830078126	-401.5523986816407	720.9771118164064	-616.8952026367189	-359.0145874023438	712.9945068359376	-712.8060913085939	-404.8652648925782	600.6890258789064	-1005.503356933594	nan	nan	nan	-480.3736572265626	794.4038085937502	-885.7875976562502	-509.8998107910157	778.2031250000002	-913.2573242187502	-510.3962402343751	778.871032714844	-856.7117309570315	-329.4674377441407	575.4937744140626	-1130.262084960938	-244.9261627197266	564.8422851562501	-1145.228271484375	-217.7352294921876	595.5259399414064	-1116.7109375	-215.0900268554688	511.9692382812501	-1155.906494140625	-143.5160369873047	462.8589172363282	-1159.2060546875	-113.9447631835938	444.6226501464845	-1040.071411132813	-118.8343353271485	325.4119262695313	-1133.966064453125	-190.1192321777344	324.2183227539063	-1184.402221679688	-156.9813537597657	300.0817871093751	-1165.256958007813	-202.2975616455079	229.9445343017579	-1139.30322265625	-348.1701660156251	90.01512145996095	-1151.298950195313	-313.1415405273438	93.53047943115236	-1065.838989257813	-413.8919372558595	50.43196487426759	-1098.516235351563	-188.0726928710938	62.24296951293947	-1114.579833984375	-190.9637145996094	60.70592498779298	-1161.37548828125	-245.5321807861329	36.44831466674805	-1209.930297851563	-429.0239257812501	569.6571044921876	-657.8512573242189	-364.2852783203126	580.6655883789064	-645.8400878906251	-347.1746215820313	608.2106323242189	-651.6041259765626	-307.0921630859376	521.3688964843751	-633.2234497070314	-172.6668548583985	452.8074340820314	-614.7947998046876	-119.7194290161133	446.6897277832032	-737.3633422851564	-172.110107421875	275.4136047363282	-697.8171997070314	-250.1016235351563	223.3144989013672	-637.2940063476564	-217.7667694091797	204.8653106689454	-665.6788330078126	-241.2248229980469	168.4116821289063	-703.3143310546876	-343.6837463378907	93.57327270507814	-668.5185546875001	-299.9218444824219	99.2631759643555	-751.2341918945314	-407.1777648925782	52.14717102050783	-734.6853637695314	-193.3553619384766	54.52531051635744	-688.2156982421876	-204.1228027343751	61.27779388427736	-636.9108886718751	-258.1472167968751	27.95559310913087	-594.4908447265626	
877	4.38	123.159538269043	1081.498168945313	-820.161560058594	-44.33726882934571	1061.230102539063	-883.9107055664065	127.972396850586	1094.3466796875	-962.483337402344	-89.42037200927736	999.7783203125002	-907.0488281250002	-353.4096984863282	863.174987792969	-894.2336425781252	-12.77371597290039	844.136901855469	-888.895202636719	25.91239166259766	876.575866699219	-1051.582763671875	-122.6935806274414	898.8594360351565	-1230.0263671875	-144.3668365478516	853.1170654296877	-1232.378295898438	-176.5025329589844	885.7751464843752	-1269.499755859375	-262.2667236328126	871.8227539062502	-1304.084594726563	-297.4301452636719	928.8286743164065	-1262.330078125	-419.7090454101564	771.1951293945315	-1098.998291015625	-437.187713623047	708.1434326171876	-1147.258666992188	-368.2759094238282	729.7647094726564	-1073.344116210938	17.1694564819336	898.7967529296877	-725.7000732421876	-142.5664215087891	948.463806152344	-571.0917968750001	-165.530502319336	903.4130859375002	-567.2902832031251	-202.3034667968751	936.0146484375002	-534.4586791992189	-270.2954101562501	940.423034667969	-503.0979919433595	-319.2460632324219	982.148620605469	-568.1110229492189	-397.0333862304689	773.244323730469	-678.5176391601564	-401.3802795410157	720.7301025390626	-616.8453369140626	-358.8478393554688	712.9996948242189	-712.6602172851564	-403.3876037597657	601.7613525390626	-1006.181091308594	nan	nan	nan	-480.3059387207032	794.4245605468752	-885.6768188476565	-509.6771850585939	778.165466308594	-913.211364746094	-510.2676391601564	778.5477294921877	-856.642517089844	-329.3193359375001	575.4620971679689	-1130.155517578125	-244.8360595703126	564.8015747070314	-1145.138793945313	-217.7084960937501	595.4990844726564	-1116.675903320313	-215.0493469238282	511.9540100097657	-1155.839111328125	-143.5227508544922	462.7974548339845	-1159.153686523438	-113.9318389892578	444.5989074707032	-1040.062133789063	-118.7998504638672	325.3704833984376	-1133.892456054688	-190.0838775634766	324.1715087890626	-1184.39404296875	-156.8591918945313	300.0678100585938	-1165.227905273438	-202.2190399169922	229.6367187500001	-1139.189086914063	-348.1638793945313	90.01379394531251	-1151.310546875	-313.1410217285157	93.51401519775392	-1065.845703125	-413.9205627441407	50.40463638305665	-1098.517456054688	-188.0805358886719	62.20420074462892	-1114.60400390625	-191.5457611083985	60.05518722534181	-1161.122436523438	-245.509262084961	36.44012069702149	-1209.960205078125	-428.9566650390626	569.5201416015626	-657.7574462890626	-364.2054748535157	580.5407714843751	-645.7485351562501	-347.0427856445313	608.1563110351564	-651.4857177734376	-307.0045776367188	521.2687377929689	-633.2029418945314	-172.6273040771485	452.7252807617189	-614.6964111328126	-119.3815841674805	446.7071228027345	-737.3786621093751	-172.05810546875	275.3702087402344	-697.7995605468751	-250.0723876953126	223.2774353027344	-637.2759399414064	-217.7594909667969	204.7180633544922	-665.6268920898439	-241.1798553466797	168.3727416992188	-703.3197631835939	-343.6645202636719	93.55706787109376	-668.5401000976564	-299.8984375000001	99.27704620361331	-751.2363891601564	-407.1859130859376	52.17780685424806	-734.6802978515626	-193.3811645507813	54.5637893676758	-688.1787719726564	-204.1091613769532	61.30238723754884	-636.9303588867189	-258.1820983886719	27.96272277832032	-594.5123291015626	
878	4.385	123.4815673828125	1081.01025390625	-820.0738525390627	-43.97014236450196	1060.788452148438	-883.7656860351565	128.2016906738282	1094.018432617188	-962.4333496093752	-89.06221771240236	999.3579101562502	-906.8937988281252	-353.2279052734376	863.1309814453127	-894.1458740234377	-12.56182479858399	843.8240356445315	-888.8417968750002	26.02886009216309	876.2047119140627	-1051.52783203125	-122.4303054809571	898.579528808594	-1229.984252929688	-144.1988677978516	852.853454589844	-1232.298828125	-176.3106994628907	885.589782714844	-1269.4677734375	-261.9496765136719	871.6783447265627	-1304.06640625	-297.1010131835938	928.8536376953127	-1262.299072265625	-419.5798645019532	771.070739746094	-1098.966796875	-436.992401123047	708.0737304687501	-1147.2060546875	-368.6729431152344	729.5567626953126	-1072.888061523438	17.45689964294434	898.3872070312502	-725.6581420898439	-142.328857421875	948.314147949219	-571.0009765625001	-165.3297882080078	903.045593261719	-567.2533569335939	-201.905502319336	935.687927246094	-534.4423828125001	-269.9212341308594	940.1942138671877	-503.0633239746095	-318.8524780273438	982.0058593750002	-568.0518798828126	-396.8571777343751	773.123474121094	-678.3796997070314	-401.2658081054689	720.6115112304689	-616.7425537109376	-358.3954162597657	712.9989624023439	-712.3801879882814	-403.1594848632814	601.8920288085939	-1006.151123046875	nan	nan	nan	-480.1632385253907	794.505798339844	-885.5843505859377	-509.6152648925782	778.1760864257815	-913.1557617187502	-510.189910888672	778.5452880859377	-856.4963989257815	-329.3109130859376	575.4732666015626	-1130.071166992188	-244.8057556152344	564.7803955078126	-1145.07763671875	-217.6929168701172	595.5020141601564	-1116.61181640625	-215.0473785400391	511.902313232422	-1155.78466796875	-143.4231109619141	462.7601318359376	-1159.120239257813	-113.8642578125	444.4875793457032	-1039.974609375	-118.7926177978516	325.3774414062501	-1133.866455078125	-190.0511932373047	324.1832885742188	-1184.380493164063	-156.9716186523438	300.0389099121094	-1165.158325195313	-202.3431854248047	229.5990295410157	-1139.190307617188	-348.1495056152344	89.9878616333008	-1151.310668945313	-313.0556945800782	93.50865173339845	-1065.843139648438	-413.9226379394532	50.42200088500978	-1098.516723632813	-188.0770721435547	62.23673629760744	-1114.625366210938	-191.2068939208985	59.58490371704103	-1161.256713867188	-245.557846069336	36.4683952331543	-1209.915649414063	-428.8753051757814	569.3998413085939	-657.6580200195314	-364.1565551757813	580.3612670898439	-645.6357421875001	-346.9102172851563	608.0979614257814	-651.4160156250001	-306.7737121582032	521.1668701171876	-633.2028808593751	-172.5279693603516	452.6970825195314	-614.6522216796876	-119.2436447143555	446.633758544922	-737.4599609375001	-172.0323944091797	275.2979736328126	-697.7859497070314	-250.0240478515626	223.2480163574219	-637.2875976562501	-217.5952453613282	204.6364440917969	-665.6591796875001	-241.0704345703126	168.3579406738282	-703.3958129882814	-343.6492309570313	93.57683563232423	-668.5396728515626	-299.8065795898438	99.21187591552737	-751.2546386718751	-407.2000122070314	52.16991424560548	-734.6743774414064	-193.3206939697266	54.52697372436525	-688.1746826171876	-204.115463256836	61.28149795532228	-636.9112548828126	-258.1764221191407	27.93426704406739	-594.5007324218751	
879	4.39	123.6069259643555	1080.555541992188	-820.0064697265627	-43.77236557006837	1060.306030273438	-883.6257324218752	128.5085906982422	1093.540161132813	-962.3592529296877	-88.35195159912111	999.0740966796877	-906.9387207031252	-353.0545349121094	862.9594726562502	-894.042175292969	-12.40264415740967	843.3673095703127	-888.7590942382815	26.6515235900879	875.8850708007815	-1051.57177734375	-122.0716018676758	898.2635498046877	-1230.012817382813	-143.8889923095703	852.6601562500002	-1232.271606445313	-176.2700805664063	885.4488525390627	-1269.346923828125	-261.8915100097657	871.3751220703127	-1304.099487304688	-296.8968505859376	928.7251586914065	-1262.236083984375	-419.5631103515626	771.000671386719	-1098.967895507813	-436.9076232910157	708.0269165039064	-1147.13525390625	-368.5173034667969	729.5548706054689	-1072.8662109375	17.70745277404786	897.7722167968752	-725.6577758789064	-142.0012969970703	947.9927368164065	-571.0215454101564	-164.8830261230469	903.0310058593752	-567.2653198242189	-201.430404663086	935.5542602539065	-534.3912963867189	-269.8062438964844	939.9034423828127	-502.9313964843751	-318.4570312500001	981.7401123046877	-567.9918823242189	-396.6917419433595	773.0831298828127	-678.2838134765626	-401.1773376464845	720.5667114257814	-616.6439208984376	-358.2405395507813	712.8740844726564	-712.3252563476564	-403.4122009277345	601.7492675781251	-1006.158508300781	nan	nan	nan	-480.0196228027345	794.4772949218752	-885.5418701171877	-509.5225524902345	778.1946411132815	-913.0432128906252	-510.1072082519532	778.5232543945315	-856.3380126953127	-329.2409973144532	575.4270629882814	-1129.98583984375	-244.7065124511719	564.7618408203126	-1144.971435546875	-217.6395721435547	595.4315185546876	-1116.503784179688	-214.989730834961	511.8829345703126	-1155.730590820313	-143.4337921142578	462.7112731933595	-1159.021240234375	-113.8430709838867	444.5005187988282	-1039.916137695313	-118.7948532104492	325.3568420410157	-1133.830688476563	-190.0365600585938	324.2223815917969	-1184.304809570313	-156.8801727294922	300.0968627929688	-1165.128295898438	-202.3754577636719	228.9199981689454	-1139.158813476563	-348.1700439453126	90.02325439453126	-1151.306884765625	-313.1204528808594	93.50879669189455	-1065.845336914063	-413.9385070800782	50.43557357788087	-1098.524658203125	-188.1043853759766	62.19893264770509	-1114.633178710938	-191.5318756103516	60.07080841064455	-1161.114624023438	-245.5013885498047	36.43941116333009	-1209.92431640625	-428.7635803222657	569.2938842773439	-657.5803222656251	-364.0897216796876	580.2840576171876	-645.5327758789064	-346.8716125488282	607.9862060546876	-651.3397216796876	-306.6455688476563	521.1191406250001	-633.1790161132814	-172.2372589111328	452.6493530273439	-614.6396484375001	-119.0424575805664	446.5776367187501	-737.4696655273439	-171.9379272460938	275.2634582519532	-697.8204345703126	-249.9912414550782	223.2141723632813	-637.2954711914064	-217.5814666748047	204.6282958984376	-665.7084350585939	-241.0105285644532	168.3298950195313	-703.3798828125001	-343.6497192382813	93.57669830322267	-668.5480957031251	-299.7655334472657	99.22898101806643	-751.2882690429689	-407.1817626953126	52.18180084228517	-734.6993408203126	-193.2993164062501	54.52149963378908	-688.2073974609376	-204.1213531494141	61.28895568847658	-636.9030151367189	-258.1897583007813	27.97384643554688	-594.5121459960939	
